<mxfile host="app.diagrams.net" modified="2023-03-12T17:36:27.721Z" agent="5.0 (Windows)" etag="RKWPEknZsEl-P6AtfZGi" version="21.0.6" type="github">
  <diagram name="Page-1" id="2YBvvXClWsGukQMizWep">
    <mxGraphModel dx="2716" dy="1402" grid="1" gridSize="10" guides="1" tooltips="1" connect="1" arrows="1" fold="1" page="1" pageScale="1" pageWidth="850" pageHeight="1100" math="0" shadow="0">
      <root>
        <mxCell id="0" />
        <mxCell id="1" parent="0" />
        <mxCell id="uUa0Gudasl1i_ph6n0ei-1" value="" style="shape=umlLifeline;perimeter=lifelinePerimeter;whiteSpace=wrap;html=1;container=1;dropTarget=0;collapsible=0;recursiveResize=0;outlineConnect=0;portConstraint=eastwest;newEdgeStyle={&quot;edgeStyle&quot;:&quot;elbowEdgeStyle&quot;,&quot;elbow&quot;:&quot;vertical&quot;,&quot;curved&quot;:0,&quot;rounded&quot;:0};participant=umlActor;" vertex="1" parent="1">
          <mxGeometry x="20" y="80" width="40" height="320" as="geometry" />
        </mxCell>
        <mxCell id="uUa0Gudasl1i_ph6n0ei-2" value="" style="html=1;points=[];perimeter=orthogonalPerimeter;outlineConnect=0;targetShapes=umlLifeline;portConstraint=eastwest;newEdgeStyle={&quot;edgeStyle&quot;:&quot;elbowEdgeStyle&quot;,&quot;elbow&quot;:&quot;vertical&quot;,&quot;curved&quot;:0,&quot;rounded&quot;:0};" vertex="1" parent="uUa0Gudasl1i_ph6n0ei-1">
          <mxGeometry x="15" y="149" width="10" height="129.58" as="geometry" />
        </mxCell>
        <mxCell id="uUa0Gudasl1i_ph6n0ei-3" value="" style="shape=umlLifeline;perimeter=lifelinePerimeter;whiteSpace=wrap;html=1;container=1;dropTarget=0;collapsible=0;recursiveResize=0;outlineConnect=0;portConstraint=eastwest;newEdgeStyle={&quot;edgeStyle&quot;:&quot;elbowEdgeStyle&quot;,&quot;elbow&quot;:&quot;vertical&quot;,&quot;curved&quot;:0,&quot;rounded&quot;:0};participant=umlBoundary;" vertex="1" parent="1">
          <mxGeometry x="150" y="80" width="50" height="320" as="geometry" />
        </mxCell>
        <mxCell id="uUa0Gudasl1i_ph6n0ei-4" value="" style="html=1;points=[];perimeter=orthogonalPerimeter;outlineConnect=0;targetShapes=umlLifeline;portConstraint=eastwest;newEdgeStyle={&quot;edgeStyle&quot;:&quot;elbowEdgeStyle&quot;,&quot;elbow&quot;:&quot;vertical&quot;,&quot;curved&quot;:0,&quot;rounded&quot;:0};" vertex="1" parent="uUa0Gudasl1i_ph6n0ei-3">
          <mxGeometry x="20" y="149.57999999999998" width="10" height="130" as="geometry" />
        </mxCell>
        <mxCell id="uUa0Gudasl1i_ph6n0ei-5" value="" style="html=1;points=[];perimeter=orthogonalPerimeter;outlineConnect=0;targetShapes=umlLifeline;portConstraint=eastwest;newEdgeStyle={&quot;edgeStyle&quot;:&quot;elbowEdgeStyle&quot;,&quot;elbow&quot;:&quot;vertical&quot;,&quot;curved&quot;:0,&quot;rounded&quot;:0};" vertex="1" parent="uUa0Gudasl1i_ph6n0ei-3">
          <mxGeometry x="25" y="179.57999999999998" width="10" height="40" as="geometry" />
        </mxCell>
        <mxCell id="uUa0Gudasl1i_ph6n0ei-6" value="&lt;div style=&quot;font-size: 10px;&quot;&gt;&lt;font style=&quot;font-size: 10px;&quot;&gt;Verification Champs&lt;/font&gt;&lt;/div&gt;&lt;div style=&quot;font-size: 10px;&quot;&gt;&lt;font style=&quot;font-size: 10px;&quot;&gt;&lt;br&gt;&lt;/font&gt;&lt;/div&gt;" style="html=1;align=left;spacingLeft=2;endArrow=block;rounded=0;edgeStyle=orthogonalEdgeStyle;curved=0;rounded=0;" edge="1" parent="uUa0Gudasl1i_ph6n0ei-3">
          <mxGeometry relative="1" as="geometry">
            <mxPoint x="30" y="159.57999999999998" as="sourcePoint" />
            <Array as="points">
              <mxPoint x="30" y="170.57999999999998" />
              <mxPoint x="60" y="170.57999999999998" />
              <mxPoint x="60" y="200.57999999999998" />
            </Array>
            <mxPoint x="35.00000000000006" y="200.57999999999998" as="targetPoint" />
          </mxGeometry>
        </mxCell>
        <mxCell id="uUa0Gudasl1i_ph6n0ei-7" value="" style="shape=umlLifeline;perimeter=lifelinePerimeter;whiteSpace=wrap;html=1;container=1;dropTarget=0;collapsible=0;recursiveResize=0;outlineConnect=0;portConstraint=eastwest;newEdgeStyle={&quot;edgeStyle&quot;:&quot;elbowEdgeStyle&quot;,&quot;elbow&quot;:&quot;vertical&quot;,&quot;curved&quot;:0,&quot;rounded&quot;:0};participant=umlEntity;" vertex="1" parent="1">
          <mxGeometry x="430" y="80" width="40" height="320" as="geometry" />
        </mxCell>
        <mxCell id="uUa0Gudasl1i_ph6n0ei-15" value="" style="html=1;points=[];perimeter=orthogonalPerimeter;outlineConnect=0;targetShapes=umlLifeline;portConstraint=eastwest;newEdgeStyle={&quot;edgeStyle&quot;:&quot;elbowEdgeStyle&quot;,&quot;elbow&quot;:&quot;vertical&quot;,&quot;curved&quot;:0,&quot;rounded&quot;:0};" vertex="1" parent="uUa0Gudasl1i_ph6n0ei-7">
          <mxGeometry x="15" y="239.57999999999998" width="10" height="40" as="geometry" />
        </mxCell>
        <mxCell id="uUa0Gudasl1i_ph6n0ei-8" value="" style="shape=umlLifeline;perimeter=lifelinePerimeter;whiteSpace=wrap;html=1;container=1;dropTarget=0;collapsible=0;recursiveResize=0;outlineConnect=0;portConstraint=eastwest;newEdgeStyle={&quot;edgeStyle&quot;:&quot;elbowEdgeStyle&quot;,&quot;elbow&quot;:&quot;vertical&quot;,&quot;curved&quot;:0,&quot;rounded&quot;:0};participant=umlControl;" vertex="1" parent="1">
          <mxGeometry x="290" y="80" width="40" height="320" as="geometry" />
        </mxCell>
        <mxCell id="uUa0Gudasl1i_ph6n0ei-9" value="" style="html=1;points=[];perimeter=orthogonalPerimeter;outlineConnect=0;targetShapes=umlLifeline;portConstraint=eastwest;newEdgeStyle={&quot;edgeStyle&quot;:&quot;elbowEdgeStyle&quot;,&quot;elbow&quot;:&quot;vertical&quot;,&quot;curved&quot;:0,&quot;rounded&quot;:0};" vertex="1" parent="uUa0Gudasl1i_ph6n0ei-8">
          <mxGeometry x="15" y="223.57999999999998" width="10" height="56" as="geometry" />
        </mxCell>
        <mxCell id="uUa0Gudasl1i_ph6n0ei-10" value="" style="html=1;verticalAlign=bottom;endArrow=block;edgeStyle=elbowEdgeStyle;elbow=vertical;curved=0;rounded=0;" edge="1" parent="uUa0Gudasl1i_ph6n0ei-8" target="uUa0Gudasl1i_ph6n0ei-9">
          <mxGeometry x="0.3889" y="-76" relative="1" as="geometry">
            <mxPoint x="-55" y="223.57999999999998" as="sourcePoint" />
            <Array as="points">
              <mxPoint x="-110" y="223.57999999999998" />
            </Array>
            <mxPoint as="offset" />
          </mxGeometry>
        </mxCell>
        <mxCell id="uUa0Gudasl1i_ph6n0ei-11" value="Post(data)" style="edgeLabel;html=1;align=center;verticalAlign=middle;resizable=0;points=[];" vertex="1" connectable="0" parent="uUa0Gudasl1i_ph6n0ei-10">
          <mxGeometry x="0.3846" y="2" relative="1" as="geometry">
            <mxPoint x="-9" y="-6" as="offset" />
          </mxGeometry>
        </mxCell>
        <mxCell id="uUa0Gudasl1i_ph6n0ei-16" value="enregister(user)" style="html=1;verticalAlign=bottom;endArrow=block;edgeStyle=elbowEdgeStyle;elbow=vertical;curved=0;rounded=0;" edge="1" parent="1" source="uUa0Gudasl1i_ph6n0ei-9" target="uUa0Gudasl1i_ph6n0ei-15">
          <mxGeometry relative="1" as="geometry">
            <mxPoint x="375" y="409.58" as="sourcePoint" />
            <Array as="points">
              <mxPoint x="370" y="319.58" />
              <mxPoint x="400" y="419.58" />
              <mxPoint x="390" y="409.58" />
            </Array>
          </mxGeometry>
        </mxCell>
        <mxCell id="uUa0Gudasl1i_ph6n0ei-17" value="response(success)" style="html=1;verticalAlign=bottom;endArrow=open;dashed=1;endSize=8;edgeStyle=elbowEdgeStyle;elbow=vertical;curved=0;rounded=0;" edge="1" parent="1" source="uUa0Gudasl1i_ph6n0ei-15" target="uUa0Gudasl1i_ph6n0ei-9">
          <mxGeometry relative="1" as="geometry">
            <mxPoint x="375" y="484.58" as="targetPoint" />
            <Array as="points">
              <mxPoint x="370" y="359.58" />
              <mxPoint x="380" y="459.58" />
            </Array>
          </mxGeometry>
        </mxCell>
        <mxCell id="uUa0Gudasl1i_ph6n0ei-19" value="&lt;div&gt;interface : updateprofile&lt;/div&gt;" style="text;html=1;align=center;verticalAlign=middle;resizable=0;points=[];autosize=1;strokeColor=none;fillColor=none;" vertex="1" parent="1">
          <mxGeometry x="100.00000000000001" y="50" width="160" height="30" as="geometry" />
        </mxCell>
        <mxCell id="uUa0Gudasl1i_ph6n0ei-20" value="Controller" style="text;html=1;align=center;verticalAlign=middle;resizable=0;points=[];autosize=1;strokeColor=none;fillColor=none;" vertex="1" parent="1">
          <mxGeometry x="270" y="50" width="80" height="30" as="geometry" />
        </mxCell>
        <mxCell id="uUa0Gudasl1i_ph6n0ei-21" value="DB:User" style="text;html=1;align=center;verticalAlign=middle;resizable=0;points=[];autosize=1;strokeColor=none;fillColor=none;" vertex="1" parent="1">
          <mxGeometry x="415" y="50" width="70" height="30" as="geometry" />
        </mxCell>
        <mxCell id="uUa0Gudasl1i_ph6n0ei-26" value="Remplir formulaire" style="html=1;verticalAlign=bottom;endArrow=block;edgeStyle=elbowEdgeStyle;elbow=vertical;curved=0;rounded=0;" edge="1" parent="1" source="uUa0Gudasl1i_ph6n0ei-2">
          <mxGeometry width="80" relative="1" as="geometry">
            <mxPoint x="41" y="229" as="sourcePoint" />
            <mxPoint x="170.5" y="228.57999999999998" as="targetPoint" />
            <Array as="points">
              <mxPoint x="116" y="229" />
              <mxPoint x="56" y="228.57999999999998" />
            </Array>
          </mxGeometry>
        </mxCell>
        <mxCell id="uUa0Gudasl1i_ph6n0ei-29" value="data updated" style="html=1;verticalAlign=bottom;endArrow=open;dashed=1;endSize=8;edgeStyle=elbowEdgeStyle;elbow=vertical;curved=0;rounded=0;" edge="1" parent="1" source="uUa0Gudasl1i_ph6n0ei-9" target="uUa0Gudasl1i_ph6n0ei-4">
          <mxGeometry relative="1" as="geometry">
            <mxPoint x="180" y="459.58" as="targetPoint" />
            <Array as="points">
              <mxPoint x="250" y="359.58" />
              <mxPoint x="245" y="459.58" />
            </Array>
            <mxPoint x="310" y="459.58" as="sourcePoint" />
          </mxGeometry>
        </mxCell>
        <mxCell id="uUa0Gudasl1i_ph6n0ei-32" value="Authentification" style="html=1;whiteSpace=wrap;" vertex="1" parent="1">
          <mxGeometry x="20" y="150" width="450" height="50" as="geometry" />
        </mxCell>
        <mxCell id="uUa0Gudasl1i_ph6n0ei-33" value="" style="endArrow=none;html=1;rounded=0;exitX=0.001;exitY=0.419;exitDx=0;exitDy=0;exitPerimeter=0;entryX=0.066;entryY=0.011;entryDx=0;entryDy=0;entryPerimeter=0;" edge="1" parent="1" source="uUa0Gudasl1i_ph6n0ei-32" target="uUa0Gudasl1i_ph6n0ei-32">
          <mxGeometry width="50" height="50" relative="1" as="geometry">
            <mxPoint x="15" y="200" as="sourcePoint" />
            <mxPoint x="65" y="150" as="targetPoint" />
            <Array as="points">
              <mxPoint x="40" y="171" />
              <mxPoint x="50" y="160" />
            </Array>
          </mxGeometry>
        </mxCell>
        <mxCell id="uUa0Gudasl1i_ph6n0ei-36" value="ref" style="text;html=1;strokeColor=none;fillColor=none;align=center;verticalAlign=middle;whiteSpace=wrap;rounded=0;" vertex="1" parent="1">
          <mxGeometry x="23" y="154" width="20" height="10" as="geometry" />
        </mxCell>
      </root>
    </mxGraphModel>
  </diagram>
</mxfile>
